<svg width="204" height="204" viewBox="0 0 204 204" fill="none" xmlns="http://www.w3.org/2000/svg">
<path d="M75.6842 2V23.0526M117.789 2V23.0526M138.842 65.1579C141.634 65.1579 144.311 66.2669 146.285 68.241C148.259 70.215 149.368 72.8925 149.368 75.6842V159.895C149.368 171.062 144.932 181.771 137.036 189.668C129.14 197.564 118.43 202 107.263 202H44.1053C32.9383 202 22.2286 197.564 14.3323 189.668C6.43608 181.771 2 171.062 2 159.895V75.6842C2 72.8925 3.10902 70.215 5.08309 68.241C7.05715 66.2669 9.73456 65.1579 12.5263 65.1579H159.895C171.062 65.1579 181.771 69.594 189.668 77.4902C197.564 85.3865 202 96.0961 202 107.263C202 118.43 197.564 129.14 189.668 137.036C181.771 144.932 171.062 149.368 159.895 149.368H149.368M33.5789 2V23.0526" stroke="#FDC90A" stroke-width="20" stroke-linecap="round" stroke-linejoin="round"/>
</svg>
