<svg width="72" height="73" viewBox="0 0 72 73" fill="none" xmlns="http://www.w3.org/2000/svg">
<path d="M20.95 0.25H51.05C62.5166 0.25 71.8333 9.675 71.8333 21.275V51.725C71.8333 57.3012 69.6436 62.649 65.746 66.5919C61.8484 70.5349 56.562 72.75 51.05 72.75H20.95C9.48329 72.75 0.166626 63.325 0.166626 51.725V21.275C0.166626 15.6988 2.35629 10.351 6.25392 6.40808C10.1516 2.46513 15.4379 0.25 20.95 0.25ZM20.2333 7.5C16.812 7.5 13.5308 8.87491 11.1116 11.3223C8.6924 13.7696 7.33329 17.0889 7.33329 20.55V52.45C7.33329 59.6637 13.1025 65.5 20.2333 65.5H51.7666C55.1879 65.5 58.4691 64.1251 60.8883 61.6777C63.3075 59.2304 64.6666 55.9111 64.6666 52.45V20.55C64.6666 13.3362 58.8975 7.5 51.7666 7.5H20.2333ZM54.8125 12.9375C56.0004 12.9375 57.1397 13.4149 57.9797 14.2647C58.8197 15.1144 59.2916 16.267 59.2916 17.4688C59.2916 18.6705 58.8197 19.8231 57.9797 20.6728C57.1397 21.5226 56.0004 22 54.8125 22C53.6245 22 52.4852 21.5226 51.6452 20.6728C50.8052 19.8231 50.3333 18.6705 50.3333 17.4688C50.3333 16.267 50.8052 15.1144 51.6452 14.2647C52.4852 13.4149 53.6245 12.9375 54.8125 12.9375ZM36 18.375C40.7518 18.375 45.3089 20.2846 48.669 23.6837C52.029 27.0828 53.9166 31.693 53.9166 36.5C53.9166 41.307 52.029 45.9172 48.669 49.3163C45.3089 52.7154 40.7518 54.625 36 54.625C31.2482 54.625 26.691 52.7154 23.331 49.3163C19.9709 45.9172 18.0833 41.307 18.0833 36.5C18.0833 31.693 19.9709 27.0828 23.331 23.6837C26.691 20.2846 31.2482 18.375 36 18.375ZM36 25.625C33.1489 25.625 30.4146 26.7708 28.3986 28.8102C26.3825 30.8497 25.25 33.6158 25.25 36.5C25.25 39.3842 26.3825 42.1503 28.3986 44.1898C30.4146 46.2292 33.1489 47.375 36 47.375C38.851 47.375 41.5853 46.2292 43.6014 44.1898C45.6174 42.1503 46.75 39.3842 46.75 36.5C46.75 33.6158 45.6174 30.8497 43.6014 28.8102C41.5853 26.7708 38.851 25.625 36 25.625Z" fill="white"/>
</svg>
